<?xml version="1.0" encoding="UTF-8"?>
<!DOCTYPE svg PUBLIC "-//W3C//DTD SVG 1.1//EN" "http://www.w3.org/Graphics/SVG/1.1/DTD/svg11.dtd">
<svg xmlns="http://www.w3.org/2000/svg" version="1.1" width="200px" height="200px" style="shape-rendering:geometricPrecision; text-rendering:geometricPrecision; image-rendering:optimizeQuality; fill-rule:evenodd; clip-rule:evenodd" xmlns:xlink="http://www.w3.org/1999/xlink">
<g><path style="opacity:1" fill="#fefffe" d="M 86.5,10.5 C 133.207,7.08858 165.707,26.7552 184,69.5C 196.49,113.982 183.99,149.482 146.5,176C 120.087,190.324 92.754,192.324 64.5,182C 34.6357,168.131 16.8024,144.964 11,112.5C 7.10153,65.7751 26.6015,33.2751 69.5,15C 75.2526,13.3137 80.9192,11.8137 86.5,10.5 Z M 94.5,21.5 C 102.126,20.0658 108.292,22.3992 113,28.5C 119.332,36.497 123.499,45.497 125.5,55.5C 108.167,55.5 90.8333,55.5 73.5,55.5C 75.9807,41.1731 82.9807,29.8398 94.5,21.5 Z M 72.5,25.5 C 73.2389,25.369 73.9056,25.5357 74.5,26C 68.4386,34.5113 64.1053,43.8446 61.5,54C 53.4698,53.6626 45.4698,52.6626 37.5,51C 47.1296,39.5131 58.7962,31.0131 72.5,25.5 Z M 124.5,26.5 C 124.56,25.9569 124.893,25.6236 125.5,25.5C 139.838,30.6677 151.838,39.1677 161.5,51C 153.53,52.6626 145.53,53.6626 137.5,54C 135.735,48.0401 133.568,42.2067 131,36.5C 129.556,32.5891 127.389,29.2558 124.5,26.5 Z M 30.5,61.5 C 39.6874,62.8718 48.8541,64.2051 58,65.5C 57.1754,74.7825 56.6754,84.1158 56.5,93.5C 44.8333,93.5 33.1667,93.5 21.5,93.5C 22.3254,82.1956 25.3254,71.529 30.5,61.5 Z M 166.5,61.5 C 169.634,64.4105 171.801,68.0772 173,72.5C 175.719,79.5937 177.219,86.927 177.5,94.5C 165.833,94.5 154.167,94.5 142.5,94.5C 142.769,84.8235 141.769,75.3235 139.5,66C 148.591,64.4096 157.591,62.9096 166.5,61.5 Z M 70.5,66.5 C 89.8362,66.3334 109.17,66.5 128.5,67C 130.758,75.6506 131.758,84.4839 131.5,93.5C 110.167,93.5 88.8333,93.5 67.5,93.5C 67.2885,84.3228 68.2885,75.3228 70.5,66.5 Z M 21.5,104.5 C 33.1667,104.5 44.8333,104.5 56.5,104.5C 56.6263,114.22 57.1263,123.886 58,133.5C 49.1674,134.626 40.334,135.959 31.5,137.5C 25.3481,127.376 22.0148,116.376 21.5,104.5 Z M 67.5,104.5 C 88.8333,104.5 110.167,104.5 131.5,104.5C 131.845,113.855 130.845,123.022 128.5,132C 109.167,132.667 89.8333,132.667 70.5,132C 68.1548,123.022 67.1548,113.855 67.5,104.5 Z M 142.5,104.5 C 154.167,104.5 165.833,104.5 177.5,104.5C 176.985,116.376 173.652,127.376 167.5,137.5C 158.145,135.998 148.811,134.498 139.5,133C 141.769,123.676 142.769,114.176 142.5,104.5 Z M 73.5,143.5 C 90.8333,143.5 108.167,143.5 125.5,143.5C 123.189,155.291 117.855,165.458 109.5,174C 100.699,179.502 92.8652,178.336 86,170.5C 79.6682,162.503 75.5015,153.503 73.5,143.5 Z M 58.5,144.5 C 59.8221,144.33 60.9887,144.663 62,145.5C 64.2457,155.583 68.4124,164.75 74.5,173C 59.802,168.461 47.4686,160.128 37.5,148C 44.5907,146.577 51.5907,145.411 58.5,144.5 Z M 137.5,144.5 C 145.568,145.207 153.568,146.373 161.5,148C 151.531,160.128 139.198,168.461 124.5,173C 130.318,164.196 134.651,154.696 137.5,144.5 Z"/></g>
</svg>
