<?xml version="1.0" encoding="UTF-8"?>
<!DOCTYPE svg PUBLIC "-//W3C//DTD SVG 1.1//EN" "http://www.w3.org/Graphics/SVG/1.1/DTD/svg11.dtd">
<svg xmlns="http://www.w3.org/2000/svg" version="1.1" width="200px" height="200px" style="shape-rendering:geometricPrecision; text-rendering:geometricPrecision; image-rendering:optimizeQuality; fill-rule:evenodd; clip-rule:evenodd" xmlns:xlink="http://www.w3.org/1999/xlink">
<g><path style="opacity:1" fill="#fefffe" d="M 79.5,24.5 C 121.57,22.0698 145.403,41.7364 151,83.5C 154.667,89.1667 158.333,94.8333 162,100.5C 162.817,103.964 162.483,107.298 161,110.5C 157.492,112.587 154.158,114.92 151,117.5C 150.039,125.516 149.039,133.516 148,141.5C 146.5,144.333 144.333,146.5 141.5,148C 136.704,148.91 132.037,150.243 127.5,152C 125.314,156.591 123.814,161.424 123,166.5C 120.876,170.313 117.709,172.813 113.5,174C 98.5,174.667 83.5,174.667 68.5,174C 63.2425,171.744 59.7425,167.91 58,162.5C 57.8324,151.818 57.3324,141.151 56.5,130.5C 34.2478,112.231 27.4144,89.2314 36,61.5C 44.2968,41.6911 58.7968,29.3578 79.5,24.5 Z M 89.5,45.5 C 91.0898,45.6282 92.4231,46.2949 93.5,47.5C 94.0601,49.8537 94.7267,52.187 95.5,54.5C 99.0487,55.2736 102.382,56.607 105.5,58.5C 107.316,57.1851 108.983,55.6851 110.5,54C 113.353,53.3414 115.02,54.508 115.5,57.5C 113.975,59.8 112.809,62.1333 112,64.5C 114.788,67.4497 116.955,70.783 118.5,74.5C 122.406,72.5845 125.406,73.4178 127.5,77C 126.085,79.7917 123.751,81.2917 120.5,81.5C 119.311,85.2785 118.311,89.1118 117.5,93C 118.688,94.9441 120.354,96.4441 122.5,97.5C 123.489,100.249 122.489,102.249 119.5,103.5C 117.358,101.793 115.025,100.959 112.5,101C 109.938,104.065 106.938,106.565 103.5,108.5C 105.225,110.957 105.725,113.623 105,116.5C 103.186,117.76 101.353,117.76 99.5,116.5C 98.4981,114.49 97.4981,112.49 96.5,110.5C 92.6354,111.806 88.8021,111.806 85,110.5C 83.8362,112.649 82.6695,114.815 81.5,117C 78.4473,118.072 76.4473,117.072 75.5,114C 76.0682,112.128 76.7349,110.295 77.5,108.5C 73.8781,106.213 70.5448,103.547 67.5,100.5C 65.5866,101.373 63.7533,102.373 62,103.5C 58.9252,102.531 57.9252,100.531 59,97.5C 60.7448,96.0443 62.5781,94.711 64.5,93.5C 63.088,90.0982 62.088,86.5982 61.5,83C 61.8333,82.6667 62.1667,82.3333 62.5,82C 60.2115,81.1779 57.8782,80.5112 55.5,80C 53.7296,73.6664 56.0629,71.8331 62.5,74.5C 64.4177,70.9961 66.5843,67.6628 69,64.5C 68.0166,62.1013 66.8499,59.6013 65.5,57C 66.2084,54.2765 67.8751,53.2765 70.5,54C 72.0175,55.6851 73.6841,57.1851 75.5,58.5C 78.7536,56.9709 82.087,55.6376 85.5,54.5C 86.0987,51.1245 87.432,48.1245 89.5,45.5 Z"/></g>
<g><path style="opacity:1" fill="#fefffe" d="M 86.5,65.5 C 102.351,65.1825 109.184,72.8492 107,88.5C 101.06,99.7596 92.2266,102.593 80.5,97C 71.9785,88.6289 71.3119,79.6289 78.5,70C 81.0993,68.205 83.7659,66.705 86.5,65.5 Z"/></g>
</svg>
