<!--?xml version="1.0" standalone="no"?-->
              <svg id="sw-js-blob-svg" viewBox="0 0 100 100" xmlns="http://www.w3.org/2000/svg" version="1.1">
                    <defs> 
                        <linearGradient id="sw-gradient" x1="0" x2="1" y1="1" y2="0">
                            <stop id="stop1" stop-color="rgba(10, 190, 173, 1)" offset="0%"></stop>
                            <stop id="stop2" stop-color="rgba(197.145, 250.944, 245.863, 1)" offset="100%"></stop>
                        </linearGradient>
                    </defs>
                <path fill="url(#sw-gradient)" d="M24.2,-27.2C32.2,-22.1,40.2,-15.3,41.3,-7.5C42.4,0.3,36.6,9,31.1,17.4C25.6,25.8,20.5,33.9,13.3,36.5C6.2,39.1,-3,36.2,-9.9,31.7C-16.9,27.3,-21.6,21.2,-25,14.7C-28.5,8.2,-30.6,1.2,-31.6,-7.7C-32.5,-16.6,-32.3,-27.4,-26.8,-33C-21.4,-38.5,-10.7,-38.9,-1.3,-37.3C8.1,-35.7,16.2,-32.3,24.2,-27.2Z" width="100%" height="100%" transform="translate(50 50)" stroke-width="0" style="transition: all 0.3s ease 0s;"></path>
              </svg>